<?xml version="1.0" encoding="UTF-8" standalone="no"?>
<!DOCTYPE svg PUBLIC "-//W3C//DTD SVG 1.1//EN"
 "http://www.w3.org/Graphics/SVG/1.1/DTD/svg11.dtd">
<!-- Generated by graphviz version 2.43.20190912.0211 (20190912.0211)
 -->
<!-- Title: flowchart Pages: 1 -->
<svg width="964pt" height="1369pt"
 viewBox="0.00 0.00 964.11 1369.20" xmlns="http://www.w3.org/2000/svg" xmlns:xlink="http://www.w3.org/1999/xlink">
<g id="graph0" class="graph" transform="scale(1 1) rotate(0) translate(4 1365.2)">
<title>flowchart</title>
<polygon fill="white" stroke="transparent" points="-4,4 -4,-1365.2 960.11,-1365.2 960.11,4 -4,4"/>
<!-- p1 -->
<g id="node1" class="node">
<title>p1</title>
<ellipse fill="black" stroke="black" cx="260.46" cy="-1340.8" rx="3.6" ry="3.6"/>
<text text-anchor="middle" x="205.73" y="-1348.6" font-family="Times-Roman" font-size="14.00">Channel.fromPath</text>
</g>
<!-- p2 -->
<g id="node2" class="node">
<title>p2</title>
<ellipse fill="none" stroke="black" cx="260.46" cy="-1296.6" rx="3.5" ry="3.5"/>
<text text-anchor="middle" x="244.9" y="-1304.3" font-family="Times-Roman" font-size="14.00">map</text>
</g>
<!-- p1&#45;&gt;p2 -->
<g id="edge1" class="edge">
<title>p1&#45;&gt;p2</title>
<path fill="none" stroke="black" d="M260.46,-1337.03C260.46,-1331.73 260.46,-1319.83 260.46,-1310.48"/>
<polygon fill="black" stroke="black" points="263.96,-1310.43 260.46,-1300.43 256.96,-1310.43 263.96,-1310.43"/>
</g>
<!-- p4 -->
<g id="node3" class="node">
<title>p4</title>
<ellipse fill="none" stroke="black" cx="308.46" cy="-1222.2" rx="65.96" ry="18"/>
<text text-anchor="middle" x="308.46" y="-1218" font-family="Times-Roman" font-size="14.00">assoc:prefilter</text>
</g>
<!-- p2&#45;&gt;p4 -->
<g id="edge2" class="edge">
<title>p2&#45;&gt;p4</title>
<path fill="none" stroke="black" d="M259.82,-1293.05C258.38,-1286.73 255.47,-1269.96 261.59,-1258.2 264.17,-1253.25 267.8,-1248.8 271.92,-1244.88"/>
<polygon fill="black" stroke="black" points="274.27,-1247.48 279.73,-1238.39 269.8,-1242.1 274.27,-1247.48"/>
<text text-anchor="middle" x="302.89" y="-1262.4" font-family="Times-Roman" font-size="14.00">for_saige_imp</text>
</g>
<!-- p5 -->
<g id="node5" class="node">
<title>p5</title>
<ellipse fill="none" stroke="black" cx="308.46" cy="-1163.6" rx="3.5" ry="3.5"/>
<text text-anchor="middle" x="292.9" y="-1171.3" font-family="Times-Roman" font-size="14.00">map</text>
</g>
<!-- p4&#45;&gt;p5 -->
<g id="edge4" class="edge">
<title>p4&#45;&gt;p5</title>
<path fill="none" stroke="black" d="M308.46,-1203.91C308.46,-1195.31 308.46,-1185.1 308.46,-1177.24"/>
<polygon fill="black" stroke="black" points="311.96,-1177.17 308.46,-1167.17 304.96,-1177.17 311.96,-1177.17"/>
</g>
<!-- p3 -->
<g id="node4" class="node">
<title>p3</title>
<ellipse fill="black" stroke="black" cx="356.46" cy="-1296.6" rx="3.6" ry="3.6"/>
<text text-anchor="middle" x="301.73" y="-1280.4" font-family="Times-Roman" font-size="14.00">Channel.fromPath</text>
</g>
<!-- p3&#45;&gt;p4 -->
<g id="edge3" class="edge">
<title>p3&#45;&gt;p4</title>
<path fill="none" stroke="black" d="M355.8,-1292.7C354.25,-1286.15 349.87,-1269.91 342.46,-1258.2 340.05,-1254.39 337.17,-1250.66 334.12,-1247.13"/>
<polygon fill="black" stroke="black" points="336.67,-1244.73 327.3,-1239.78 331.54,-1249.49 336.67,-1244.73"/>
</g>
<!-- p6 -->
<g id="node6" class="node">
<title>p6</title>
<ellipse fill="none" stroke="black" cx="222.46" cy="-1035.2" rx="92.59" ry="18"/>
<text text-anchor="middle" x="222.46" y="-1031" font-family="Times-Roman" font-size="14.00">assoc:extract_dosage</text>
</g>
<!-- p5&#45;&gt;p6 -->
<g id="edge5" class="edge">
<title>p5&#45;&gt;p6</title>
<path fill="none" stroke="black" d="M305.04,-1162.82C293.3,-1163.37 254.29,-1163.46 235.84,-1142 217.42,-1120.57 216.2,-1087.09 218.23,-1063.54"/>
<polygon fill="black" stroke="black" points="221.72,-1063.82 219.34,-1053.5 214.76,-1063.06 221.72,-1063.82"/>
<text text-anchor="middle" x="294.76" y="-1129.4" font-family="Times-Roman" font-size="14.00">ch_mapped_prefilter</text>
</g>
<!-- p7 -->
<g id="node8" class="node">
<title>p7</title>
<ellipse fill="none" stroke="black" cx="378.46" cy="-1089.2" rx="78.17" ry="18"/>
<text text-anchor="middle" x="378.46" y="-1085" font-family="Times-Roman" font-size="14.00">assoc:gen_r2_list</text>
</g>
<!-- p5&#45;&gt;p7 -->
<g id="edge7" class="edge">
<title>p5&#45;&gt;p7</title>
<path fill="none" stroke="black" d="M311.73,-1162.06C320.22,-1160.51 343.27,-1155.23 356.46,-1142 363.27,-1135.16 368.1,-1125.88 371.47,-1117.07"/>
<polygon fill="black" stroke="black" points="374.82,-1118.06 374.67,-1107.47 368.18,-1115.85 374.82,-1118.06"/>
<text text-anchor="middle" x="425.76" y="-1129.4" font-family="Times-Roman" font-size="14.00">ch_mapped_prefilter</text>
</g>
<!-- p11 -->
<g id="node13" class="node">
<title>p11</title>
<ellipse fill="none" stroke="black" cx="666.46" cy="-1089.2" rx="80.46" ry="18"/>
<text text-anchor="middle" x="666.46" y="-1085" font-family="Times-Roman" font-size="14.00">assoc:make_plink</text>
</g>
<!-- p5&#45;&gt;p11 -->
<g id="edge12" class="edge">
<title>p5&#45;&gt;p11</title>
<path fill="none" stroke="black" d="M311.92,-1162.42C330.3,-1161.45 418.16,-1156.2 488.46,-1142 514.5,-1136.74 520.33,-1132.64 545.84,-1125.2 566.71,-1119.12 589.61,-1112.47 609.8,-1106.61"/>
<polygon fill="black" stroke="black" points="610.85,-1109.95 619.48,-1103.8 608.9,-1103.23 610.85,-1109.95"/>
<text text-anchor="middle" x="603.76" y="-1129.4" font-family="Times-Roman" font-size="14.00">ch_mapped_prefilter</text>
</g>
<!-- p35 -->
<g id="node36" class="node">
<title>p35</title>
<ellipse fill="none" stroke="black" cx="98.46" cy="-1089.2" rx="98.41" ry="18"/>
<text text-anchor="middle" x="98.46" y="-1085" font-family="Times-Roman" font-size="14.00">assoc:split_vcf_ranges</text>
</g>
<!-- p5&#45;&gt;p35 -->
<g id="edge41" class="edge">
<title>p5&#45;&gt;p35</title>
<path fill="none" stroke="black" d="M305.1,-1162.53C279.42,-1161.96 114.47,-1157.72 99.84,-1142 93.76,-1135.47 92.18,-1126.22 92.53,-1117.34"/>
<polygon fill="black" stroke="black" points="96.03,-1117.61 93.68,-1107.28 89.07,-1116.82 96.03,-1117.61"/>
<text text-anchor="middle" x="158.76" y="-1129.4" font-family="Times-Roman" font-size="14.00">ch_mapped_prefilter</text>
</g>
<!-- p23 -->
<g id="node7" class="node">
<title>p23</title>
<ellipse fill="none" stroke="black" cx="339.46" cy="-550.4" rx="3.5" ry="3.5"/>
<text text-anchor="middle" x="311.85" y="-558.1" font-family="Times-Roman" font-size="14.00">combine</text>
</g>
<!-- p6&#45;&gt;p23 -->
<g id="edge6" class="edge">
<title>p6&#45;&gt;p23</title>
<path fill="none" stroke="black" d="M176.94,-1019.5C156.31,-1009.72 136.46,-994.4 136.46,-971.7 136.46,-971.7 136.46,-971.7 136.46,-732.4 136.46,-664.97 165.25,-645.5 219.46,-605.4 254.33,-579.6 303.49,-562.37 326.55,-555.18"/>
<polygon fill="black" stroke="black" points="327.65,-558.51 336.23,-552.29 325.64,-551.8 327.65,-558.51"/>
</g>
<!-- p24 -->
<g id="node25" class="node">
<title>p24</title>
<ellipse fill="none" stroke="black" cx="421.46" cy="-477.4" rx="80.46" ry="18"/>
<text text-anchor="middle" x="421.46" y="-473.2" font-family="Times-Roman" font-size="14.00">assoc:plink_assoc</text>
</g>
<!-- p23&#45;&gt;p24 -->
<g id="edge28" class="edge">
<title>p23&#45;&gt;p24</title>
<path fill="none" stroke="black" d="M341.12,-546.82C343.44,-543.34 347.86,-537.05 352.46,-532.4 363.67,-521.06 377.26,-509.96 389.41,-500.79"/>
<polygon fill="black" stroke="black" points="391.59,-503.54 397.55,-494.78 387.43,-497.91 391.59,-503.54"/>
</g>
<!-- p8 -->
<g id="node9" class="node">
<title>p8</title>
<ellipse fill="none" stroke="black" cx="378.46" cy="-995.7" rx="3.5" ry="3.5"/>
<text text-anchor="middle" x="356.3" y="-1003.4" font-family="Times-Roman" font-size="14.00">collect</text>
</g>
<!-- p7&#45;&gt;p8 -->
<g id="edge8" class="edge">
<title>p7&#45;&gt;p8</title>
<path fill="none" stroke="black" d="M378.46,-1070.99C378.46,-1053.19 378.46,-1025.81 378.46,-1009.73"/>
<polygon fill="black" stroke="black" points="381.96,-1009.34 378.46,-999.34 374.96,-1009.34 381.96,-1009.34"/>
</g>
<!-- p9 -->
<g id="node10" class="node">
<title>p9</title>
<ellipse fill="none" stroke="black" cx="378.46" cy="-931.2" rx="71.77" ry="18"/>
<text text-anchor="middle" x="378.46" y="-927" font-family="Times-Roman" font-size="14.00">assoc:merge_r2</text>
</g>
<!-- p8&#45;&gt;p9 -->
<g id="edge9" class="edge">
<title>p8&#45;&gt;p9</title>
<path fill="none" stroke="black" d="M378.46,-992.01C378.46,-986.3 378.46,-972.39 378.46,-959.43"/>
<polygon fill="black" stroke="black" points="381.96,-959.4 378.46,-949.4 374.96,-959.4 381.96,-959.4"/>
</g>
<!-- p14 -->
<g id="node11" class="node">
<title>p14</title>
<ellipse fill="none" stroke="black" cx="521.46" cy="-858.2" rx="117.46" ry="18"/>
<text text-anchor="middle" x="521.46" y="-854" font-family="Times-Roman" font-size="14.00">assoc:prune_python_helper</text>
</g>
<!-- p9&#45;&gt;p14 -->
<g id="edge10" class="edge">
<title>p9&#45;&gt;p14</title>
<path fill="none" stroke="black" d="M409.48,-914.79C429.99,-904.61 457.11,-891.15 479.53,-880.02"/>
<polygon fill="black" stroke="black" points="481.1,-883.15 488.5,-875.56 477.98,-876.88 481.1,-883.15"/>
</g>
<!-- p15 -->
<g id="node16" class="node">
<title>p15</title>
<ellipse fill="none" stroke="black" cx="511.46" cy="-769.4" rx="56.74" ry="18"/>
<text text-anchor="middle" x="511.46" y="-765.2" font-family="Times-Roman" font-size="14.00">assoc:prune</text>
</g>
<!-- p9&#45;&gt;p15 -->
<g id="edge18" class="edge">
<title>p9&#45;&gt;p15</title>
<path fill="none" stroke="black" d="M374.87,-913.14C371.79,-893.85 369.8,-862.28 383.8,-840.2 400.97,-813.1 432.53,-795.71 459.97,-785.06"/>
<polygon fill="black" stroke="black" points="461.3,-788.3 469.48,-781.57 458.88,-781.73 461.3,-788.3"/>
<text text-anchor="middle" x="389.29" y="-854" font-family="Times-Roman" font-size="14.00">r2</text>
</g>
<!-- p14&#45;&gt;p15 -->
<g id="edge16" class="edge">
<title>p14&#45;&gt;p15</title>
<path fill="none" stroke="black" d="M519.48,-840.05C518.08,-827.92 516.18,-811.42 514.58,-797.52"/>
<polygon fill="black" stroke="black" points="518.05,-797.05 513.43,-787.51 511.1,-797.85 518.05,-797.05"/>
<text text-anchor="middle" x="543.67" y="-809.6" font-family="Times-Roman" font-size="14.00">outputfile</text>
</g>
<!-- p10 -->
<g id="node12" class="node">
<title>p10</title>
<ellipse fill="black" stroke="black" cx="666.46" cy="-1163.6" rx="3.6" ry="3.6"/>
<text text-anchor="middle" x="611.73" y="-1171.4" font-family="Times-Roman" font-size="14.00">Channel.fromPath</text>
</g>
<!-- p10&#45;&gt;p11 -->
<g id="edge11" class="edge">
<title>p10&#45;&gt;p11</title>
<path fill="none" stroke="black" d="M666.46,-1159.85C666.46,-1152.9 666.46,-1134.02 666.46,-1117.67"/>
<polygon fill="black" stroke="black" points="669.96,-1117.44 666.46,-1107.44 662.96,-1117.44 669.96,-1117.44"/>
</g>
<!-- p12 -->
<g id="node14" class="node">
<title>p12</title>
<ellipse fill="none" stroke="black" cx="666.46" cy="-995.7" rx="3.5" ry="3.5"/>
<text text-anchor="middle" x="644.3" y="-1003.4" font-family="Times-Roman" font-size="14.00">collect</text>
</g>
<!-- p11&#45;&gt;p12 -->
<g id="edge13" class="edge">
<title>p11&#45;&gt;p12</title>
<path fill="none" stroke="black" d="M666.46,-1070.99C666.46,-1053.19 666.46,-1025.81 666.46,-1009.73"/>
<polygon fill="black" stroke="black" points="669.96,-1009.34 666.46,-999.34 662.96,-1009.34 669.96,-1009.34"/>
</g>
<!-- p27 -->
<g id="node29" class="node">
<title>p27</title>
<ellipse fill="none" stroke="black" cx="847.46" cy="-477.4" rx="63.12" ry="18"/>
<text text-anchor="middle" x="847.46" y="-473.2" font-family="Times-Roman" font-size="14.00">assoc:liftover</text>
</g>
<!-- p11&#45;&gt;p27 -->
<g id="edge32" class="edge">
<title>p11&#45;&gt;p27</title>
<path fill="none" stroke="black" d="M739.91,-1081.93C793.38,-1072.85 856.46,-1050.7 856.46,-996.7 856.46,-996.7 856.46,-996.7 856.46,-549.4 856.46,-534.79 854.56,-518.63 852.5,-505.42"/>
<polygon fill="black" stroke="black" points="855.96,-504.83 850.86,-495.54 849.05,-505.98 855.96,-504.83"/>
</g>
<!-- p13 -->
<g id="node15" class="node">
<title>p13</title>
<ellipse fill="none" stroke="black" cx="666.46" cy="-931.2" rx="83.39" ry="18"/>
<text text-anchor="middle" x="666.46" y="-927" font-family="Times-Roman" font-size="14.00">assoc:merge_plink</text>
</g>
<!-- p12&#45;&gt;p13 -->
<g id="edge14" class="edge">
<title>p12&#45;&gt;p13</title>
<path fill="none" stroke="black" d="M666.46,-992.01C666.46,-986.3 666.46,-972.39 666.46,-959.43"/>
<polygon fill="black" stroke="black" points="669.96,-959.4 666.46,-949.4 662.96,-959.4 669.96,-959.4"/>
</g>
<!-- p13&#45;&gt;p14 -->
<g id="edge15" class="edge">
<title>p13&#45;&gt;p14</title>
<path fill="none" stroke="black" d="M634.28,-914.44C613.52,-904.28 586.31,-890.96 563.81,-879.94"/>
<polygon fill="black" stroke="black" points="565.32,-876.78 554.8,-875.53 562.25,-883.07 565.32,-876.78"/>
</g>
<!-- p13&#45;&gt;p15 -->
<g id="edge17" class="edge">
<title>p13&#45;&gt;p15</title>
<path fill="none" stroke="black" d="M667.04,-913.16C666.84,-893.62 663.74,-861.52 647.46,-840.2 626.69,-813.01 592.34,-795.5 563.36,-784.82"/>
<polygon fill="black" stroke="black" points="564.37,-781.46 553.77,-781.46 562.05,-788.07 564.37,-781.46"/>
</g>
<!-- p50 -->
<g id="node50" class="node">
<title>p50</title>
<ellipse fill="none" stroke="black" cx="617.46" cy="-477.4" rx="88.02" ry="18"/>
<text text-anchor="middle" x="617.46" y="-473.2" font-family="Times-Roman" font-size="14.00">assoc:regenie_step2</text>
</g>
<!-- p13&#45;&gt;p50 -->
<g id="edge60" class="edge">
<title>p13&#45;&gt;p50</title>
<path fill="none" stroke="black" d="M741.12,-922.95C779.56,-914.64 818.46,-896.92 818.46,-859.2 818.46,-859.2 818.46,-859.2 818.46,-549.4 818.46,-522.08 751.61,-502.66 695.01,-491.11"/>
<polygon fill="black" stroke="black" points="695.43,-487.63 684.95,-489.12 694.07,-494.49 695.43,-487.63"/>
</g>
<!-- p16 -->
<g id="node17" class="node">
<title>p16</title>
<ellipse fill="none" stroke="black" cx="511.46" cy="-696.4" rx="94.9" ry="18"/>
<text text-anchor="middle" x="511.46" y="-692.2" font-family="Times-Roman" font-size="14.00">assoc:liftover_pruned</text>
</g>
<!-- p15&#45;&gt;p16 -->
<g id="edge19" class="edge">
<title>p15&#45;&gt;p16</title>
<path fill="none" stroke="black" d="M511.46,-751.21C511.46,-743.19 511.46,-733.45 511.46,-724.47"/>
<polygon fill="black" stroke="black" points="514.96,-724.43 511.46,-714.43 507.96,-724.43 514.96,-724.43"/>
</g>
<!-- p18 -->
<g id="node19" class="node">
<title>p18</title>
<ellipse fill="none" stroke="black" cx="313.46" cy="-696.4" rx="85.07" ry="18"/>
<text text-anchor="middle" x="313.46" y="-692.2" font-family="Times-Roman" font-size="14.00">assoc:generate_pcs</text>
</g>
<!-- p15&#45;&gt;p18 -->
<g id="edge21" class="edge">
<title>p15&#45;&gt;p18</title>
<path fill="none" stroke="black" d="M475.14,-755.38C444.02,-744.22 398.85,-728.02 364.16,-715.58"/>
<polygon fill="black" stroke="black" points="365.27,-712.26 354.67,-712.18 362.91,-718.85 365.27,-712.26"/>
</g>
<!-- p34 -->
<g id="node23" class="node">
<title>p34</title>
<ellipse fill="none" stroke="black" cx="200.46" cy="-550.4" rx="74.15" ry="18"/>
<text text-anchor="middle" x="200.46" y="-546.2" font-family="Times-Roman" font-size="14.00">assoc:saige_null</text>
</g>
<!-- p15&#45;&gt;p34 -->
<g id="edge39" class="edge">
<title>p15&#45;&gt;p34</title>
<path fill="none" stroke="black" d="M455.7,-765.77C380.09,-760.96 250.84,-747.96 219.46,-714.4 185.33,-677.91 189.04,-614.93 194.77,-578.87"/>
<polygon fill="black" stroke="black" points="198.29,-579.06 196.57,-568.6 191.39,-577.85 198.29,-579.06"/>
</g>
<!-- p49 -->
<g id="node49" class="node">
<title>p49</title>
<ellipse fill="none" stroke="black" cx="537.46" cy="-550.4" rx="88.02" ry="18"/>
<text text-anchor="middle" x="537.46" y="-546.2" font-family="Times-Roman" font-size="14.00">assoc:regenie_step1</text>
</g>
<!-- p15&#45;&gt;p49 -->
<g id="edge57" class="edge">
<title>p15&#45;&gt;p49</title>
<path fill="none" stroke="black" d="M554.64,-757.62C576.95,-749.62 602.2,-736.22 615.46,-714.4 623.76,-700.73 623.45,-692.26 615.46,-678.4 599.04,-649.94 570.02,-668.51 551.46,-641.4 538.92,-623.1 535.92,-597.84 535.77,-578.74"/>
<polygon fill="black" stroke="black" points="539.27,-578.63 535.95,-568.57 532.27,-578.51 539.27,-578.63"/>
</g>
<!-- p17 -->
<g id="node18" class="node">
<title>p17</title>
<ellipse fill="black" stroke="black" cx="502.46" cy="-623.4" rx="1.8" ry="1.8"/>
</g>
<!-- p16&#45;&gt;p17 -->
<g id="edge20" class="edge">
<title>p16&#45;&gt;p17</title>
<path fill="none" stroke="black" d="M509.28,-678.21C507.58,-664.82 505.28,-646.65 503.83,-635.22"/>
<polygon fill="black" stroke="black" points="507.29,-634.71 502.56,-625.23 500.35,-635.59 507.29,-634.71"/>
</g>
<!-- p21 -->
<g id="node20" class="node">
<title>p21</title>
<ellipse fill="none" stroke="black" cx="338.46" cy="-623.4" rx="110.49" ry="18"/>
<text text-anchor="middle" x="338.46" y="-619.2" font-family="Times-Roman" font-size="14.00">assoc:make_saige_covars</text>
</g>
<!-- p18&#45;&gt;p21 -->
<g id="edge22" class="edge">
<title>p18&#45;&gt;p21</title>
<path fill="none" stroke="black" d="M319.51,-678.21C322.39,-670.02 325.91,-660.02 329.13,-650.88"/>
<polygon fill="black" stroke="black" points="332.44,-652.02 332.46,-641.43 325.84,-649.7 332.44,-652.02"/>
</g>
<!-- p21&#45;&gt;p23 -->
<g id="edge27" class="edge">
<title>p21&#45;&gt;p23</title>
<path fill="none" stroke="black" d="M338.7,-605.21C338.88,-592.57 339.11,-575.66 339.28,-564.19"/>
<polygon fill="black" stroke="black" points="342.78,-564.13 339.42,-554.08 335.78,-564.03 342.78,-564.13"/>
</g>
<!-- p21&#45;&gt;p34 -->
<g id="edge25" class="edge">
<title>p21&#45;&gt;p34</title>
<path fill="none" stroke="black" d="M306.8,-606.11C286.83,-595.84 260.9,-582.5 239.64,-571.56"/>
<polygon fill="black" stroke="black" points="241.04,-568.35 230.55,-566.88 237.84,-574.57 241.04,-568.35"/>
</g>
<!-- p22 -->
<g id="node24" class="node">
<title>p22</title>
<ellipse fill="black" stroke="black" cx="363.46" cy="-550.4" rx="1.8" ry="1.8"/>
</g>
<!-- p21&#45;&gt;p22 -->
<g id="edge26" class="edge">
<title>p21&#45;&gt;p22</title>
<path fill="none" stroke="black" d="M344.51,-605.21C349.27,-591.67 355.76,-573.24 359.78,-561.84"/>
<polygon fill="black" stroke="black" points="363.14,-562.82 363.16,-552.23 356.54,-560.5 363.14,-562.82"/>
</g>
<!-- p43 -->
<g id="node43" class="node">
<title>p43</title>
<ellipse fill="none" stroke="black" cx="307.46" cy="-131.6" rx="113.44" ry="18"/>
<text text-anchor="middle" x="307.46" y="-127.4" font-family="Times-Roman" font-size="14.00">assoc:merge_saige_results</text>
</g>
<!-- p21&#45;&gt;p43 -->
<g id="edge50" class="edge">
<title>p21&#45;&gt;p43</title>
<path fill="none" stroke="black" d="M326.38,-605.5C317.68,-591.65 307.46,-571.17 307.46,-551.4 307.46,-551.4 307.46,-551.4 307.46,-194 307.46,-182.81 307.46,-170.47 307.46,-159.8"/>
<polygon fill="black" stroke="black" points="310.96,-159.8 307.46,-149.8 303.96,-159.8 310.96,-159.8"/>
</g>
<!-- p21&#45;&gt;p49 -->
<g id="edge58" class="edge">
<title>p21&#45;&gt;p49</title>
<path fill="none" stroke="black" d="M382.13,-606.82C412.71,-595.91 453.71,-581.28 485.9,-569.79"/>
<polygon fill="black" stroke="black" points="487.35,-572.99 495.59,-566.34 485,-566.4 487.35,-572.99"/>
</g>
<!-- p21&#45;&gt;p50 -->
<g id="edge61" class="edge">
<title>p21&#45;&gt;p50</title>
<path fill="none" stroke="black" d="M353.39,-605.38C371.93,-585.25 405.41,-551.98 440.46,-532.4 473.13,-514.14 512.72,-501.32 546.17,-492.77"/>
<polygon fill="black" stroke="black" points="547.02,-496.16 555.88,-490.36 545.33,-489.37 547.02,-496.16"/>
</g>
<!-- p19 -->
<g id="node21" class="node">
<title>p19</title>
<ellipse fill="black" stroke="black" cx="168.46" cy="-769.4" rx="3.6" ry="3.6"/>
<text text-anchor="middle" x="113.73" y="-777.2" font-family="Times-Roman" font-size="14.00">Channel.fromPath</text>
</g>
<!-- p20 -->
<g id="node22" class="node">
<title>p20</title>
<ellipse fill="none" stroke="black" cx="168.46" cy="-696.4" rx="3.5" ry="3.5"/>
<text text-anchor="middle" x="142.01" y="-704.1" font-family="Times-Roman" font-size="14.00">ifEmpty</text>
</g>
<!-- p19&#45;&gt;p20 -->
<g id="edge23" class="edge">
<title>p19&#45;&gt;p20</title>
<path fill="none" stroke="black" d="M168.46,-765.7C168.46,-756.7 168.46,-727.26 168.46,-710.11"/>
<polygon fill="black" stroke="black" points="171.96,-710.1 168.46,-700.1 164.96,-710.1 171.96,-710.1"/>
</g>
<!-- p20&#45;&gt;p21 -->
<g id="edge24" class="edge">
<title>p20&#45;&gt;p21</title>
<path fill="none" stroke="black" d="M171.41,-694.17C185.41,-688.32 246.35,-662.87 290.59,-644.39"/>
<polygon fill="black" stroke="black" points="292.15,-647.53 300.03,-640.45 289.46,-641.07 292.15,-647.53"/>
</g>
<!-- p37 -->
<g id="node35" class="node">
<title>p37</title>
<ellipse fill="none" stroke="black" cx="200.46" cy="-477.4" rx="3.5" ry="3.5"/>
<text text-anchor="middle" x="180.62" y="-485.1" font-family="Times-Roman" font-size="14.00">toList</text>
</g>
<!-- p34&#45;&gt;p37 -->
<g id="edge40" class="edge">
<title>p34&#45;&gt;p37</title>
<path fill="none" stroke="black" d="M200.46,-532.21C200.46,-519.57 200.46,-502.66 200.46,-491.19"/>
<polygon fill="black" stroke="black" points="203.96,-491.08 200.46,-481.08 196.96,-491.08 203.96,-491.08"/>
</g>
<!-- p25 -->
<g id="node26" class="node">
<title>p25</title>
<ellipse fill="none" stroke="black" cx="436.46" cy="-404.4" rx="3.5" ry="3.5"/>
<text text-anchor="middle" x="414.3" y="-412.1" font-family="Times-Roman" font-size="14.00">collect</text>
</g>
<!-- p24&#45;&gt;p25 -->
<g id="edge29" class="edge">
<title>p24&#45;&gt;p25</title>
<path fill="none" stroke="black" d="M425.09,-459.21C427.76,-446.57 431.33,-429.66 433.75,-418.19"/>
<polygon fill="black" stroke="black" points="437.25,-418.59 435.89,-408.08 430.4,-417.14 437.25,-418.59"/>
</g>
<!-- p26 -->
<g id="node27" class="node">
<title>p26</title>
<ellipse fill="none" stroke="black" cx="448.46" cy="-331.4" rx="113.46" ry="18"/>
<text text-anchor="middle" x="448.46" y="-327.2" font-family="Times-Roman" font-size="14.00">assoc:merge_plink_results</text>
</g>
<!-- p25&#45;&gt;p26 -->
<g id="edge30" class="edge">
<title>p25&#45;&gt;p26</title>
<path fill="none" stroke="black" d="M436.91,-400.7C438.06,-393.93 441.15,-375.6 443.85,-359.63"/>
<polygon fill="black" stroke="black" points="447.33,-360.07 445.54,-349.62 440.43,-358.9 447.33,-360.07"/>
</g>
<!-- p32 -->
<g id="node28" class="node">
<title>p32</title>
<ellipse fill="none" stroke="black" cx="490.46" cy="-258.4" rx="108.84" ry="18"/>
<text text-anchor="middle" x="490.46" y="-254.2" font-family="Times-Roman" font-size="14.00">assoc:lift_plink_sumstats</text>
</g>
<!-- p26&#45;&gt;p32 -->
<g id="edge31" class="edge">
<title>p26&#45;&gt;p32</title>
<path fill="none" stroke="black" d="M458.62,-313.21C463.58,-304.84 469.64,-294.6 475.13,-285.3"/>
<polygon fill="black" stroke="black" points="478.3,-286.82 480.38,-276.43 472.28,-283.25 478.3,-286.82"/>
</g>
<!-- p33 -->
<g id="node34" class="node">
<title>p33</title>
<ellipse fill="black" stroke="black" cx="490.46" cy="-195" rx="1.8" ry="1.8"/>
</g>
<!-- p32&#45;&gt;p33 -->
<g id="edge38" class="edge">
<title>p32&#45;&gt;p33</title>
<path fill="none" stroke="black" d="M490.46,-240.3C490.46,-229.74 490.46,-216.5 490.46,-207.25"/>
<polygon fill="black" stroke="black" points="493.96,-207.16 490.46,-197.16 486.96,-207.16 493.96,-207.16"/>
</g>
<!-- p28 -->
<g id="node30" class="node">
<title>p28</title>
<ellipse fill="none" stroke="black" cx="847.46" cy="-404.4" rx="108.81" ry="18"/>
<text text-anchor="middle" x="847.46" y="-400.2" font-family="Times-Roman" font-size="14.00">assoc:merge_plink_lifted</text>
</g>
<!-- p27&#45;&gt;p28 -->
<g id="edge33" class="edge">
<title>p27&#45;&gt;p28</title>
<path fill="none" stroke="black" d="M847.46,-459.21C847.46,-451.19 847.46,-441.45 847.46,-432.47"/>
<polygon fill="black" stroke="black" points="850.96,-432.43 847.46,-422.43 843.96,-432.43 850.96,-432.43"/>
</g>
<!-- p30 -->
<g id="node31" class="node">
<title>p30</title>
<ellipse fill="none" stroke="black" cx="715.46" cy="-404.4" rx="3.5" ry="3.5"/>
<text text-anchor="middle" x="693.3" y="-412.1" font-family="Times-Roman" font-size="14.00">collect</text>
</g>
<!-- p27&#45;&gt;p30 -->
<g id="edge34" class="edge">
<title>p27&#45;&gt;p30</title>
<path fill="none" stroke="black" d="M807.54,-463.32C783.43,-454.21 752.94,-440.46 729.46,-422.4 727.02,-420.52 724.73,-418.15 722.73,-415.77"/>
<polygon fill="black" stroke="black" points="725.55,-413.69 716.83,-407.66 719.89,-417.81 725.55,-413.69"/>
</g>
<!-- p29 -->
<g id="node32" class="node">
<title>p29</title>
<ellipse fill="black" stroke="black" cx="847.46" cy="-331.4" rx="1.8" ry="1.8"/>
</g>
<!-- p28&#45;&gt;p29 -->
<g id="edge35" class="edge">
<title>p28&#45;&gt;p29</title>
<path fill="none" stroke="black" d="M847.46,-386.21C847.46,-372.97 847.46,-355.05 847.46,-343.61"/>
<polygon fill="black" stroke="black" points="850.96,-343.23 847.46,-333.23 843.96,-343.23 850.96,-343.23"/>
</g>
<!-- p31 -->
<g id="node33" class="node">
<title>p31</title>
<ellipse fill="none" stroke="black" cx="699.46" cy="-331.4" rx="119.24" ry="18"/>
<text text-anchor="middle" x="699.46" y="-327.2" font-family="Times-Roman" font-size="14.00">assoc:merge_liftover_tables</text>
</g>
<!-- p30&#45;&gt;p31 -->
<g id="edge36" class="edge">
<title>p30&#45;&gt;p31</title>
<path fill="none" stroke="black" d="M714.85,-400.7C713.32,-393.93 709.19,-375.6 705.59,-359.63"/>
<polygon fill="black" stroke="black" points="708.95,-358.61 703.34,-349.62 702.12,-360.15 708.95,-358.61"/>
</g>
<!-- p31&#45;&gt;p32 -->
<g id="edge37" class="edge">
<title>p31&#45;&gt;p32</title>
<path fill="none" stroke="black" d="M653.33,-314.73C621.49,-303.91 579.01,-289.48 545.41,-278.07"/>
<polygon fill="black" stroke="black" points="546.34,-274.69 535.74,-274.78 544.09,-281.32 546.34,-274.69"/>
</g>
<!-- p44 -->
<g id="node44" class="node">
<title>p44</title>
<ellipse fill="none" stroke="black" cx="545.46" cy="-58.6" rx="108.82" ry="18"/>
<text text-anchor="middle" x="545.46" y="-54.4" font-family="Times-Roman" font-size="14.00">assoc:lift_saige_sumstats</text>
</g>
<!-- p31&#45;&gt;p44 -->
<g id="edge52" class="edge">
<title>p31&#45;&gt;p44</title>
<path fill="none" stroke="black" d="M693.79,-313.4C689.54,-299.14 684.46,-278.17 684.46,-259.4 684.46,-259.4 684.46,-259.4 684.46,-130.6 684.46,-101.87 660.62,-84.76 632.69,-74.57"/>
<polygon fill="black" stroke="black" points="633.68,-71.21 623.08,-71.38 631.47,-77.86 633.68,-71.21"/>
<text text-anchor="middle" x="706.23" y="-190.8" font-family="Times-Roman" font-size="14.00">lifttable</text>
</g>
<!-- p38 -->
<g id="node38" class="node">
<title>p38</title>
<ellipse fill="none" stroke="black" cx="199.46" cy="-404.4" rx="3.5" ry="3.5"/>
<text text-anchor="middle" x="171.85" y="-412.1" font-family="Times-Roman" font-size="14.00">combine</text>
</g>
<!-- p37&#45;&gt;p38 -->
<g id="edge44" class="edge">
<title>p37&#45;&gt;p38</title>
<path fill="none" stroke="black" d="M200.42,-473.7C200.29,-464.7 199.88,-435.26 199.64,-418.11"/>
<polygon fill="black" stroke="black" points="203.13,-418.05 199.49,-408.1 196.14,-418.15 203.13,-418.05"/>
</g>
<!-- p36 -->
<g id="node37" class="node">
<title>p36</title>
<ellipse fill="none" stroke="black" cx="98.46" cy="-970.7" rx="3.5" ry="3.5"/>
<text text-anchor="middle" x="68.52" y="-978.4" font-family="Times-Roman" font-size="14.00">transpose</text>
</g>
<!-- p35&#45;&gt;p36 -->
<g id="edge42" class="edge">
<title>p35&#45;&gt;p36</title>
<path fill="none" stroke="black" d="M98.46,-1071.01C98.46,-1047.43 98.46,-1005.59 98.46,-984.54"/>
<polygon fill="black" stroke="black" points="101.96,-984.29 98.46,-974.29 94.96,-984.29 101.96,-984.29"/>
</g>
<!-- p36&#45;&gt;p38 -->
<g id="edge43" class="edge">
<title>p36&#45;&gt;p38</title>
<path fill="none" stroke="black" d="M98.46,-967.13C98.46,-957.6 98.46,-923.4 98.46,-895.2 98.46,-895.2 98.46,-895.2 98.46,-476.4 98.46,-434.02 158.7,-414.75 186.14,-408.17"/>
<polygon fill="black" stroke="black" points="187.07,-411.55 196.1,-406.01 185.58,-404.71 187.07,-411.55"/>
</g>
<!-- p39 -->
<g id="node39" class="node">
<title>p39</title>
<ellipse fill="none" stroke="black" cx="199.46" cy="-331.4" rx="3.5" ry="3.5"/>
<text text-anchor="middle" x="183.9" y="-339.1" font-family="Times-Roman" font-size="14.00">map</text>
</g>
<!-- p38&#45;&gt;p39 -->
<g id="edge45" class="edge">
<title>p38&#45;&gt;p39</title>
<path fill="none" stroke="black" d="M199.46,-400.7C199.46,-391.7 199.46,-362.26 199.46,-345.11"/>
<polygon fill="black" stroke="black" points="202.96,-345.1 199.46,-335.1 195.96,-345.1 202.96,-345.1"/>
</g>
<!-- p41 -->
<g id="node40" class="node">
<title>p41</title>
<ellipse fill="none" stroke="black" cx="199.46" cy="-258.4" rx="80.43" ry="18"/>
<text text-anchor="middle" x="199.46" y="-254.2" font-family="Times-Roman" font-size="14.00">assoc:saige_assoc</text>
</g>
<!-- p39&#45;&gt;p41 -->
<g id="edge46" class="edge">
<title>p39&#45;&gt;p41</title>
<path fill="none" stroke="black" d="M199.46,-327.7C199.46,-320.93 199.46,-302.6 199.46,-286.63"/>
<polygon fill="black" stroke="black" points="202.96,-286.62 199.46,-276.62 195.96,-286.62 202.96,-286.62"/>
</g>
<!-- p42 -->
<g id="node42" class="node">
<title>p42</title>
<ellipse fill="none" stroke="black" cx="256.46" cy="-195" rx="3.5" ry="3.5"/>
<text text-anchor="middle" x="234.3" y="-202.7" font-family="Times-Roman" font-size="14.00">collect</text>
</g>
<!-- p41&#45;&gt;p42 -->
<g id="edge48" class="edge">
<title>p41&#45;&gt;p42</title>
<path fill="none" stroke="black" d="M215.03,-240.62C225.51,-229.33 238.95,-214.85 247.64,-205.5"/>
<polygon fill="black" stroke="black" points="250.21,-207.88 254.44,-198.17 245.08,-203.11 250.21,-207.88"/>
</g>
<!-- p40 -->
<g id="node41" class="node">
<title>p40</title>
<ellipse fill="black" stroke="black" cx="174.46" cy="-331.4" rx="3.6" ry="3.6"/>
<text text-anchor="middle" x="119.73" y="-339.2" font-family="Times-Roman" font-size="14.00">Channel.fromPath</text>
</g>
<!-- p40&#45;&gt;p41 -->
<g id="edge47" class="edge">
<title>p40&#45;&gt;p41</title>
<path fill="none" stroke="black" d="M175.41,-327.7C177.81,-320.87 184.37,-302.25 190.03,-286.17"/>
<polygon fill="black" stroke="black" points="193.37,-287.22 193.39,-276.62 186.77,-284.89 193.37,-287.22"/>
</g>
<!-- p42&#45;&gt;p43 -->
<g id="edge49" class="edge">
<title>p42&#45;&gt;p43</title>
<path fill="none" stroke="black" d="M258.39,-191.67C263.14,-185.95 275.78,-170.73 287.04,-157.18"/>
<polygon fill="black" stroke="black" points="289.75,-159.4 293.44,-149.47 284.36,-154.93 289.75,-159.4"/>
</g>
<!-- p43&#45;&gt;p44 -->
<g id="edge51" class="edge">
<title>p43&#45;&gt;p44</title>
<path fill="none" stroke="black" d="M358.22,-115.46C395.47,-104.34 446.2,-89.21 485.46,-77.5"/>
<polygon fill="black" stroke="black" points="486.6,-80.81 495.18,-74.6 484.59,-74.1 486.6,-80.81"/>
</g>
<!-- p45 -->
<g id="node45" class="node">
<title>p45</title>
<ellipse fill="black" stroke="black" cx="545.46" cy="-1.8" rx="1.8" ry="1.8"/>
</g>
<!-- p44&#45;&gt;p45 -->
<g id="edge53" class="edge">
<title>p44&#45;&gt;p45</title>
<path fill="none" stroke="black" d="M545.46,-40.56C545.46,-31.87 545.46,-21.56 545.46,-13.9"/>
<polygon fill="black" stroke="black" points="548.96,-13.76 545.46,-3.76 541.96,-13.76 548.96,-13.76"/>
</g>
<!-- p46 -->
<g id="node46" class="node">
<title>p46</title>
<ellipse fill="black" stroke="black" cx="675.46" cy="-769.4" rx="3.6" ry="3.6"/>
<text text-anchor="middle" x="620.73" y="-777.2" font-family="Times-Roman" font-size="14.00">Channel.fromPath</text>
</g>
<!-- p47 -->
<g id="node47" class="node">
<title>p47</title>
<ellipse fill="none" stroke="black" cx="675.46" cy="-696.4" rx="3.5" ry="3.5"/>
<text text-anchor="middle" x="649.01" y="-704.1" font-family="Times-Roman" font-size="14.00">ifEmpty</text>
</g>
<!-- p46&#45;&gt;p47 -->
<g id="edge54" class="edge">
<title>p46&#45;&gt;p47</title>
<path fill="none" stroke="black" d="M675.46,-765.7C675.46,-756.7 675.46,-727.26 675.46,-710.11"/>
<polygon fill="black" stroke="black" points="678.96,-710.1 675.46,-700.1 671.96,-710.1 678.96,-710.1"/>
</g>
<!-- p48 -->
<g id="node48" class="node">
<title>p48</title>
<ellipse fill="none" stroke="black" cx="675.46" cy="-623.4" rx="114.59" ry="18"/>
<text text-anchor="middle" x="675.46" y="-619.2" font-family="Times-Roman" font-size="14.00">assoc:phenofile_from_fam</text>
</g>
<!-- p47&#45;&gt;p48 -->
<g id="edge55" class="edge">
<title>p47&#45;&gt;p48</title>
<path fill="none" stroke="black" d="M675.46,-692.7C675.46,-685.93 675.46,-667.6 675.46,-651.63"/>
<polygon fill="black" stroke="black" points="678.96,-651.62 675.46,-641.62 671.96,-651.62 678.96,-651.62"/>
</g>
<!-- p48&#45;&gt;p49 -->
<g id="edge56" class="edge">
<title>p48&#45;&gt;p49</title>
<path fill="none" stroke="black" d="M643.45,-605.93C623.75,-595.8 598.34,-582.73 577.34,-571.92"/>
<polygon fill="black" stroke="black" points="578.83,-568.75 568.34,-567.29 575.63,-574.98 578.83,-568.75"/>
</g>
<!-- p48&#45;&gt;p50 -->
<g id="edge62" class="edge">
<title>p48&#45;&gt;p50</title>
<path fill="none" stroke="black" d="M668.57,-605.32C658.59,-580.52 639.99,-534.35 628.19,-505.06"/>
<polygon fill="black" stroke="black" points="631.31,-503.43 624.33,-495.46 624.82,-506.05 631.31,-503.43"/>
<text text-anchor="middle" x="678.89" y="-546.2" font-family="Times-Roman" font-size="14.00">phenofile</text>
</g>
<!-- p49&#45;&gt;p50 -->
<g id="edge59" class="edge">
<title>p49&#45;&gt;p50</title>
<path fill="none" stroke="black" d="M556.41,-532.57C566.78,-523.38 579.77,-511.85 591.1,-501.79"/>
<polygon fill="black" stroke="black" points="593.48,-504.36 598.63,-495.11 588.83,-499.13 593.48,-504.36"/>
</g>
<!-- p52 -->
<g id="node51" class="node">
<title>p52</title>
<ellipse fill="black" stroke="black" cx="629.46" cy="-404.4" rx="1.8" ry="1.8"/>
</g>
<!-- p50&#45;&gt;p52 -->
<g id="edge63" class="edge">
<title>p50&#45;&gt;p52</title>
<path fill="none" stroke="black" d="M620.36,-459.21C622.62,-445.82 625.7,-427.65 627.63,-416.22"/>
<polygon fill="black" stroke="black" points="631.1,-416.67 629.32,-406.23 624.2,-415.5 631.1,-416.67"/>
</g>
<!-- p51 -->
<g id="node52" class="node">
<title>p51</title>
<ellipse fill="black" stroke="black" cx="604.46" cy="-404.4" rx="1.8" ry="1.8"/>
</g>
<!-- p50&#45;&gt;p51 -->
<g id="edge64" class="edge">
<title>p50&#45;&gt;p51</title>
<path fill="none" stroke="black" d="M614.31,-459.21C611.86,-445.82 608.53,-427.65 606.44,-416.22"/>
<polygon fill="black" stroke="black" points="609.85,-415.43 604.61,-406.23 602.97,-416.69 609.85,-415.43"/>
</g>
</g>
</svg>
